<?xml version="1.0" encoding="UTF-8" standalone="no"?>
<!-- Created with Inkscape (http://www.inkscape.org/) -->

<svg
   width="210mm"
   height="297mm"
   viewBox="0 0 210 297"
   version="1.1"
   id="svg5"
   sodipodi:docname="logo-projeto.svg"
   inkscape:version="1.1.2 (b8e25be833, 2022-02-05)"
   xmlns:inkscape="http://www.inkscape.org/namespaces/inkscape"
   xmlns:sodipodi="http://sodipodi.sourceforge.net/DTD/sodipodi-0.dtd"
   xmlns="http://www.w3.org/2000/svg"
   xmlns:svg="http://www.w3.org/2000/svg">
  <sodipodi:namedview
     id="namedview7"
     pagecolor="#ffffff"
     bordercolor="#666666"
     borderopacity="1.0"
     inkscape:pageshadow="2"
     inkscape:pageopacity="0.0"
     inkscape:pagecheckerboard="0"
     inkscape:document-units="mm"
     showgrid="false"
     showguides="true"
     inkscape:guide-bbox="true"
     inkscape:zoom="1.0368618"
     inkscape:cx="236.28993"
     inkscape:cy="176.49411"
     inkscape:window-width="1920"
     inkscape:window-height="1009"
     inkscape:window-x="-8"
     inkscape:window-y="-8"
     inkscape:window-maximized="1"
     inkscape:current-layer="layer1" />
  <defs
     id="defs2" />
  <g
     inkscape:label="Camada 1"
     inkscape:groupmode="layer"
     id="layer1">
    <path
       style="fill:#475ac2;fill-opacity:1;stroke:none;stroke-width:0.0266826"
       d="m 36.732634,40.404481 c -0.07041,-0.0105 -0.0744,-0.0178 -0.06043,-0.1094 0.03033,-0.19908 0.205177,-2.17391 0.19732,-2.22901 -0.0044,-0.0314 -0.149997,0.45327 -0.323391,1.07697 -0.173389,0.62369 -0.323479,1.14196 -0.33353,1.15171 -0.01004,0.01 -0.09787,-0.008 -0.195144,-0.04 l -0.176867,-0.0577 0.327889,-1.17403 c 0.18034,-0.64572 0.325572,-1.17643 0.322739,-1.17936 -0.003,-0.003 -0.208049,0.41495 -0.456035,0.92863 -0.247981,0.51367 -0.552469,1.37025 -0.566162,1.37871 -0.03007,0.0186 -0.44296,-0.21102 -0.44296,-0.2436 0,-0.0126 0.404679,-0.8008 0.661746,-1.33164 0.257071,-0.53083 0.456737,-0.95354 0.443696,-0.93935 -0.01304,0.0142 -0.332997,0.45206 -0.711021,0.97303 -0.378025,0.52098 -0.701361,0.96241 -0.718532,0.98097 -0.02478,0.0268 -0.06045,0.0119 -0.173305,-0.0723 -0.07816,-0.0583 -0.147408,-0.11132 -0.153897,-0.11781 -0.0065,-0.006 0.314589,-0.46025 0.713512,-1.00836 0.398914,-0.54811 0.685337,-0.96055 0.636489,-0.91652 -0.04885,0.044 -0.351409,0.33106 -0.672356,0.63784 l -0.929295,1.06175 -0.332209,-0.38232 0.402244,-0.39813 0.240141,-0.23367 c 0.132081,-0.12853 0.438263,-0.42381 0.680407,-0.65621 0.242145,-0.23239 0.404239,-0.39869 0.360215,-0.36955 -0.849354,0.56215 -1.969938,1.28752 -1.989032,1.28752 -0.01372,0 -0.06915,-0.0666 -0.123169,-0.14792 -0.08382,-0.12624 -0.09266,-0.15298 -0.06031,-0.18245 0.02084,-0.019 0.466407,-0.3154 0.990134,-0.65868 0.523726,-0.34328 0.948761,-0.62761 0.944521,-0.63184 -0.0042,-0.004 -0.486771,0.19656 -1.072299,0.44621 -0.585527,0.24966 -1.077483,0.45399 -1.093239,0.45408 -0.02796,2.1e-4 -0.173801,-0.32019 -0.157862,-0.3467 0.0044,-0.007 0.500973,-0.22295 1.10346,-0.47913 0.60249,-0.25619 1.092506,-0.46873 1.088923,-0.47231 -0.0038,-0.004 -0.45465,0.0949 -1.002379,0.21879 -0.547725,0.12392 -1.235312,0.42407 -1.246718,0.41702 -0.02207,-0.0137 -0.143699,-0.48774 -0.126968,-0.49995 0.0055,-0.004 0.742623,-0.18287 1.295659,-0.30638 0.553032,-0.1235 1.001405,-0.22867 0.996377,-0.2337 -0.0072,-0.007 -1.409853,0.0441 -2.228694,0.0815 l -0.146757,0.007 -0.0078,-0.19164 -0.0078,-0.19165 0.114532,-0.0138 c 0.063,-0.008 0.468746,-0.0267 0.901671,-0.0425 0.432922,-0.0157 0.919211,-0.0365 1.080643,-0.046 l 0.293505,-0.0173 -0.893865,-0.12706 c -0.491625,-0.0699 -0.897821,-0.12782 -0.902653,-0.12878 -0.0048,-0.001 -0.508695,-0.0935 -0.500957,-0.13385 0.0077,-0.0404 0.01495,-0.11763 0.02435,-0.18 0.01453,-0.0963 -0.003,-0.22413 0.05026,-0.22413 0.03439,0 0.949397,0.21125 1.370468,0.27056 0.42107,0.0593 0.776278,0.1043 0.789349,0.0999 0.01309,-0.004 -0.45969,-0.16857 -1.05058,-0.36491 -0.590893,-0.19635 -1.079626,-0.36167 -1.086077,-0.36737 -0.0064,-0.006 0.01491,-0.0931 0.04747,-0.19418 l 0.0592,-0.18381 1.111461,0.37072 c 0.611309,0.2039 1.115565,0.36663 1.120579,0.36162 0.005,-0.005 -0.426453,-0.24646 -0.958812,-0.53653 -0.532363,-0.29007 -0.995344,-0.54445 -1.028843,-0.56528 l -0.06091,-0.0379 0.0942,-0.16558 c 0.05181,-0.0911 0.103233,-0.16348 0.114275,-0.16091 0.01105,0.003 0.440329,0.23489 0.953967,0.51627 1.058199,0.57971 1.080643,0.59169 1.080643,0.5771 0,-0.006 -0.353675,-0.29613 -0.78594,-0.64505 -0.884983,-0.71433 -1.072752,-0.77188 -0.852196,-0.98005 l 0.150086,-0.14165 0.894467,0.77162 c 0.974255,0.84046 0.921658,0.74887 0.789158,0.59046 -0.0612,-0.0732 -0.411938,-0.48124 -0.779425,-0.90683 l -0.66815,-0.7738 0.139044,-0.12644 c 0.07647,-0.0696 0.14541,-0.12658 0.15319,-0.12674 0.0078,-2e-4 0.354721,0.39594 0.770972,0.88022 0.41625,0.48429 0.762072,0.88053 0.768493,0.88053 0.0064,0 -0.0122,-0.039 -0.04134,-0.0867 -0.308126,-0.50419 -1.183773,-1.83065 -1.175014,-1.85276 0.0061,-0.0155 0.320074,-0.35821 0.369799,-0.2768 l 0.295343,0.48362 0.05222,0.0859 c 0.02872,0.0472 0.229426,0.38801 0.446018,0.75732 0.216592,0.3693 0.396267,0.66901 0.399282,0.66603 0.003,-0.003 -0.166447,-0.47325 -0.376584,-1.04502 -0.210146,-0.57177 -0.390075,-1.06518 -0.399851,-1.09646 -0.01567,-0.0502 0.003,-0.0651 0.15674,-0.12674 0.09598,-0.0384 0.178697,-0.0699 0.183818,-0.0699 0.0051,0 0.187244,0.48614 0.404742,1.08031 0.217494,0.59417 0.400325,1.07542 0.406297,1.06945 0.006,-0.006 -0.07479,-0.5011 -0.179468,-1.10031 -0.104676,-0.59921 -0.192758,-1.10706 -0.195744,-1.12855 -0.0038,-0.0284 0.04504,-0.0484 0.179332,-0.0732 0.101618,-0.0188 0.188612,-0.0302 0.193309,-0.0255 0.0047,0.005 0.09566,0.5059 0.202136,1.11378 l 0.193585,1.10525 0.007,-0.98059 1.99e-4,-1.2269 0.205444,-0.008 0.173801,0.006 0.02952,1.28253 0.0025,1.03395 0.211679,-1.15909 c 0.11643,-0.63751 0.217337,-1.16475 0.224249,-1.17167 0.0069,-0.007 0.09618,0.002 0.198375,0.0207 0.180912,0.0323 0.185453,0.0351 0.172174,0.10436 -0.0664,0.34633 -0.406957,2.25874 -0.402929,2.26266 0.003,0.003 0.143296,-0.36594 0.312065,-0.8194 0.168764,-0.45345 0.563676,-1.4574 0.580716,-1.45758 0.0608,-8.5e-4 0.371086,0.10983 0.371086,0.1365 0,0.0149 -0.412434,1.00777 -0.568513,1.42738 -0.15607,0.41961 -0.289413,0.78094 -0.296313,0.80295 -0.0069,0.022 0.259104,-0.41324 0.591127,-0.96724 0.332014,-0.554 0.612444,-1.00721 0.623173,-1.00715 0.04019,2e-4 0.312823,0.18044 0.30832,0.20382 -0.0038,0.0194 -0.913183,1.5623 -1.13407,1.924 -0.02914,0.0477 -0.0475,0.0867 -0.04083,0.0867 0.0066,0 0.357025,-0.39624 0.778553,-0.88053 0.421523,-0.48428 0.772102,-0.88053 0.779056,-0.88053 0.02558,0 0.275708,0.2226 0.275708,0.24537 0,0.013 -0.326115,0.3983 -0.72469,0.85634 -0.871578,1.00159 -0.846016,0.97153 -0.796219,0.93612 0.02202,-0.0156 0.376229,-0.2963 0.787138,-0.62365 0.410909,-0.32734 0.968169,-0.88612 0.98836,-0.90188 0.0285,-0.0222 0.129844,0.11606 0.219988,0.2192 0.06389,0.073 0.09345,0.19913 0.09302,0.21381 -3.69e-4,0.0146 -0.604744,0.41751 -1.038254,0.76238 -0.433506,0.34487 -0.793026,0.63474 -0.79893,0.64415 -0.0059,0.009 0.464129,-0.23908 1.044518,-0.5522 l 1.05526,-0.5693 0.07825,0.12338 c 0.07734,0.12196 0.118934,0.21735 0.101259,0.23226 -0.005,0.004 -0.473832,0.25801 -1.041833,0.56399 -0.568001,0.30597 -1.029961,0.55908 -1.026589,0.56246 0.0034,0.003 0.371438,-0.11325 0.817917,-0.25916 0.44648,-0.14591 1.35397,-0.44382 1.371709,-0.44382 0.02605,0 0.194724,0.30016 0.194724,0.36296 0,0.009 -0.962451,0.30388 -1.431696,0.45615 -0.469246,0.15227 -0.850341,0.27968 -0.846881,0.28314 0.0034,0.003 0.528471,-0.0648 1.166692,-0.15168 0.638222,-0.0869 1.17413,-0.15806 1.190903,-0.15816 0.04079,-2e-4 0.05649,0.0467 0.07739,0.23149 l 0.01758,0.15522 -1.188792,0.15914 c -0.653838,0.0875 -1.185036,0.1629 -1.180445,0.16749 0.0086,0.009 2.113776,0.11283 2.290486,0.11334 l 0.10006,3.7e-4 v 0.20012 c 0,0.19058 -0.003,0.20012 -0.0609,0.20012 -0.0335,0 -0.575307,-0.0245 -1.204037,-0.0545 -0.628725,-0.03 -1.146713,-0.0509 -1.151084,-0.0465 -0.0044,0.004 0.442265,0.10995 0.992528,0.2346 0.550253,0.12466 1.01218,0.23373 1.0265,0.24237 0.01639,0.01 0.39545,0.0866 0.382171,0.20699 l -0.03253,0.29522 -0.507686,-0.13499 c -0.36866,-0.098 -1.940061,-0.44487 -1.946236,-0.4387 -0.0042,0.004 0.490846,0.22227 1.100088,0.4846 0.612309,0.26366 1.107717,0.49187 1.107717,0.51027 0,0.0472 -0.126867,0.32831 -0.148172,0.32831 -0.01783,0 -2.087245,-0.88967 -2.186551,-0.94004 -0.127413,-0.0646 0.04142,0.0538 0.727096,0.51008 0.399905,0.2661 0.727104,0.49629 0.727104,0.51154 0,0.0152 0.538542,0.43499 0.486907,0.5157 -0.06152,0.0962 -0.223551,0.19521 -0.245093,0.18238 -0.01809,-0.0108 -0.819879,-0.55738 -1.202389,-0.88639 -0.354111,-0.30457 -0.725096,-0.48073 -0.747108,-0.49342 -0.04092,-0.0236 0.641212,0.64353 1.334126,1.30478 0.212789,0.20306 0.391291,0.38092 0.396661,0.39524 0.0054,0.0143 -0.04766,0.0843 -0.117845,0.15559 l -0.127612,0.12956 -0.162322,-0.14956 c -0.08928,-0.0823 -0.498153,-0.47493 -0.908613,-0.87262 -0.41046,-0.39768 -0.723847,-0.68771 -0.696413,-0.64451 0.02745,0.0432 0.297482,0.42142 0.60011,0.8405 0.726668,1.00629 0.802721,1.11446 0.801747,1.1403 -0.0013,0.025 -0.206453,0.1844 -0.268151,0.20808 -0.02995,0.0115 -0.225868,-0.24195 -0.741446,-0.95914 -0.634469,-0.88256 -0.775164,-1.06875 -0.701309,-0.92805 0.01347,0.0257 0.201395,0.41891 0.417584,0.87385 0.216181,0.45494 0.40999,0.86014 0.430672,0.90047 l 0.03761,0.0733 -0.173826,0.0857 c -0.106888,0.0527 -0.182293,0.0759 -0.195821,0.0601 -0.01211,-0.0141 -0.219332,-0.44173 -0.460529,-0.95032 -0.2412,-0.50859 -0.441866,-0.92152 -0.445928,-0.91761 -0.0042,0.004 0.09573,0.38399 0.221746,0.84465 0.12602,0.46066 0.269532,0.99059 0.318923,1.17761 l 0.0898,0.34003 -0.186215,0.0566 c -0.102419,0.0311 -0.189616,0.0522 -0.193767,0.0469 -0.0042,-0.005 -0.150606,-0.54035 -0.325444,-1.18892 -0.174843,-0.64857 -0.320905,-1.15888 -0.324586,-1.13401 -0.0038,0.0249 0.028,0.43544 0.07038,0.91239 0.04239,0.47695 0.122424,1.49109 0.118472,1.49547 -0.01948,0.0215 -0.417665,0.031 -0.418296,0.0103 -0.0034,-0.11416 -0.175325,-2.39305 -0.18311,-2.40083 -0.0056,-0.006 -0.05554,0.48469 -0.110984,1.08951 -0.05544,0.60482 -0.107544,1.15071 -0.115778,1.21308 l -0.01499,0.1134 -0.123118,-0.004 c -0.06771,-0.002 -0.15704,-0.009 -0.198502,-0.0153 z m 0.158222,-2.41603 c -6.956272,-7.7248 -3.478136,-3.8624 0,0 z m 0.87774,-0.43168 c 0.22766,-0.0596 0.561101,-0.23067 0.741204,-0.38026 1.064794,-0.88444 0.876301,-2.58869 -0.355068,-3.21029 -0.291226,-0.14701 -0.515539,-0.19842 -0.866423,-0.19858 -0.377897,-1.9e-4 -0.560923,0.0419 -0.893865,0.20523 -0.183101,0.0899 -0.273691,0.15796 -0.470185,0.35354 -0.208646,0.20767 -0.260697,0.27832 -0.364632,0.49489 -0.281845,0.58725 -0.277334,1.17783 0.01343,1.7602 0.08916,0.17858 0.161573,0.27502 0.34057,0.4536 0.125033,0.12474 0.295356,0.26667 0.3785,0.31541 0.174787,0.10245 0.459486,0.20648 0.66587,0.24329 0.191391,0.0341 0.612127,0.0149 0.810595,-0.037 z"
       id="path39"
       sodipodi:nodetypes="cscssccsssssssssssssscccsscsssssscssssssssscccssscsssssssssscsssscsssssscssscssssssscsssssssssssssscccccccsssscssssssccsssssssssscscscsssssssssssscssscssssssscssssssssssssscscsssscssssscsssssscsssssscsssccccccssscsssssssss" />
    <path
       style="fill:#475ac2;fill-opacity:1;stroke:none;stroke-width:0.0438766;stroke-miterlimit:4;stroke-dasharray:none"
       d="m 13.303782,60.188887 c -0.302373,-0.0744 -0.547241,-0.2727 -0.707104,-0.57284 -0.07885,-0.14793 -0.08167,-0.42692 -0.08167,-7.95371 0,-7.52074 0.0035,-7.80585 0.08155,-7.95373 0.136347,-0.25645 0.378051,-0.47482 0.611531,-0.55236 0.531083,-0.1764 1.140903,0.12342 1.294651,0.63661 0.03656,0.12206 0.05003,2.07511 0.05003,7.272 v 7.10506 h 7.105056 c 5.196887,0 7.149878,0.0136 7.272001,0.05 0.241972,0.0725 0.474819,0.28379 0.593414,0.53847 0.237545,0.51016 0.03727,1.07518 -0.478966,1.35111 l -0.183576,0.0981 -7.712703,0.007 c -4.241992,0.003 -7.771843,-0.008 -7.844159,-0.0256 z m 32.209261,-4.3e-4 c -0.65637,-0.15985 -0.98993,-0.88614 -0.68234,-1.48587 0.10123,-0.1976 0.23247,-0.31978 0.47246,-0.44021 l 0.18448,-0.0926 h 7.14475 7.14475 l 4.3e-4,-7.13205 c 4.2e-4,-7.0841 0.001,-7.13339 0.0903,-7.32926 0.11131,-0.24542 0.23326,-0.37837 0.44848,-0.48871 0.51668,-0.26494 1.11843,-0.0677 1.39978,0.4585 l 0.0981,0.1836 v 7.80033 7.80034 l -0.11967,0.20355 c -0.0658,0.11201 -0.18012,0.25442 -0.25406,0.31661 -0.3087,0.25978 0.11831,0.24715 -8.19051,0.24224 -4.18337,-10e-4 -7.66529,-0.0189 -7.7376,-0.0365 z m -9.662781,-13.28672 c -2.162133,-0.1355 -4.424598,-0.633 -6.589916,-1.44885 -3.655043,-1.37717 -7.419538,-3.82759 -10.456887,-6.80663 -1.297486,-1.2726 -2.26203,-2.33979 -2.415179,-2.6722 -0.12394,-0.26899 -0.108966,-0.62067 0.03784,-0.89145 0.172998,-0.31893 1.046456,-1.2923 2.07768,-2.31523 1.668075,-1.65467 3.24975,-2.94707 5.142024,-4.20159 5.233935,-3.46993 10.699612,-4.90036 16.145712,-4.2255 5.109887,0.63318 10.237627,3.15174 14.858437,7.29792 0.70569,0.63319 2.37127,2.32485 2.84518,2.88974 0.20221,0.24102 0.40356,0.51708 0.44743,0.6135 0.0972,0.21351 0.10486,0.58276 0.0169,0.79407 -0.24924,0.59649 -2.73463,3.11611 -4.51713,4.57936 -5.5195,4.53091 -11.656485,6.759 -17.591771,6.38686 z m 3.035841,-2.20266 c 2.879652,-0.54793 5.333931,-2.39742 6.63875,-5.00277 1.28896,-2.57371 1.28896,-5.70339 0,-8.27708 -0.43402,-0.86663 -0.94654,-1.58641 -1.643314,-2.30784 -0.819116,-0.84808 -1.547474,-1.37728 -2.619248,-1.90297 -1.270178,-0.62302 -2.365747,-0.88968 -3.817752,-0.92921 -1.236926,-0.0337 -2.100333,0.0882 -3.214318,0.45346 -3.520657,1.15459 -6.000056,4.27117 -6.358411,7.99248 -0.09631,1.00095 0.0136,2.27045 0.285686,3.27448 0.888655,3.28856 3.605202,5.88107 6.947797,6.63052 0.772004,0.17309 1.237205,0.21446 2.234916,0.19868 0.791476,-0.0119 1.038771,-0.0334 1.545894,-0.12971 z M 28.21471,42.580257 c -1.056556,-1.33921 -1.785803,-2.87165 -2.153171,-4.52463 -0.357652,-1.60927 -0.357957,-3.37617 -8.47e-4,-4.99572 0.355966,-1.6146 1.120796,-3.22186 2.153018,-4.52464 0.12887,-0.16275 0.221188,-0.29579 0.205088,-0.29579 -0.01698,0 -0.376834,0.17471 -0.801611,0.38823 -2.139947,1.07571 -4.312532,2.55935 -6.282769,4.29043 -0.522238,0.45884 -2.043619,1.94887 -2.461016,2.4103 l -0.208768,0.2308 0.429933,0.4643 c 1.967988,2.1252 4.595287,4.23361 7.092945,5.69207 0.610335,0.35641 2.146995,1.15678 2.22584,1.15933 0.0191,4.2e-4 -0.0703,-0.13193 -0.198634,-0.29468 z m 18.453833,-0.0689 c 2.32964,-1.16561 4.6651,-2.7892 6.75441,-4.69547 0.48657,-0.44396 1.5527,-1.50193 1.89061,-1.87616 l 0.34756,-0.38488 -0.20627,-0.22862 c -0.43029,-0.47693 -1.93418,-1.94044 -2.53075,-2.46282 -1.97721,-1.73127 -4.01334,-3.12047 -6.17074,-4.21013 -0.45065,-0.22762 -0.8311,-0.41384 -0.84549,-0.41384 -0.0136,0 0.0808,0.13313 0.21144,0.2958 1.25179,1.55873 2.08415,3.57359 2.35796,5.70783 0.0794,0.61976 0.0676,2.10256 -0.0222,2.76079 -0.27273,1.99936 -0.98439,3.7596 -2.15293,5.32517 -0.22455,0.30085 -0.39795,0.547 -0.38534,0.547 0.0119,0 0.35091,-0.1641 0.75178,-0.36467 z M 13.162467,27.948237 c -0.266028,-0.0941 -0.561279,-0.43559 -0.622147,-0.71938 -0.03269,-0.15272 -0.0471,-2.54272 -0.0471,-7.79148 0,-8.33567 -0.01535,-7.85459 0.266754,-8.17627 0.07241,-0.0824 0.224306,-0.19549 0.337723,-0.25134 l 0.206238,-0.10164 h 7.778439 7.778431 l 0.181539,0.097 c 0.241306,0.12903 0.474611,0.40889 0.542206,0.65035 0.101581,0.36323 -0.03117,0.81006 -0.310811,1.04538 -0.310506,0.26128 0.19602,0.24491 -7.583209,0.24491 h -7.137652 v 7.10506 c 0,5.19687 -0.01359,7.1499 -0.05003,7.272 -0.158656,0.52925 -0.785442,0.82171 -1.340229,0.62527 z m 47.359376,0.0315 c -0.32305,-0.0982 -0.51436,-0.2659 -0.65337,-0.57256 -0.0888,-0.19587 -0.0894,-0.24515 -0.0905,-7.32925 l -4.2e-4,-7.13204 h -7.1444 c -5.89482,0 -7.16909,-0.0102 -7.28543,-0.0591 -0.64868,-0.27184 -0.84046,-1.09686 -0.37727,-1.62308 0.34212,-0.38866 -0.4307,-0.35555 8.29952,-0.35555 6.37945,0 7.74175,0.0102 7.88078,0.0594 0.21899,0.0775 0.44838,0.28162 0.56851,0.50612 l 0.0961,0.17945 0.0136,7.66887 c 0.0105,5.54418 0,7.73216 -0.0356,7.89728 -0.11764,0.54669 -0.74309,0.92102 -1.27088,0.76047 z"
       id="path3632-8"
       sodipodi:nodetypes="ccscssscscscccccccscccscsccccsccccsssscsssssccssssssssscccscsscsccsssscsssccssscsssscccssssccscccccccsscscccssccscsscccccss" />
    <circle
       style="fill:none;fill-opacity:1;stroke:#475ac2;stroke-width:0.847105;stroke-linecap:round;stroke-miterlimit:4;stroke-dasharray:none;stroke-opacity:1"
       id="path5427"
       cx="37.293827"
       cy="35.500919"
       r="4.7574377" />
  </g>
</svg>
